<?xml version="1.0" encoding="iso-8859-1"?>
<!-- Generator: Adobe Illustrator 19.0.0, SVG Export Plug-In . SVG Version: 6.00 Build 0)  -->
<svg version="1.1" id="Layer_1" xmlns="http://www.w3.org/2000/svg" xmlns:xlink="http://www.w3.org/1999/xlink" x="0px" y="0px"
	 viewBox="0 0 512.002 512.002" style="enable-background:new 0 0 512.002 512.002;" xml:space="preserve">
<g>
	<g>
		<path d="M368.528,196.923c4.662,0,8.44-3.779,8.44-8.44s-3.778-8.44-8.44-8.44c-6.275,0-12.425,0.537-18.414,1.554
			c8.86-10.186,15.934-22.088,20.608-35.313c1.553-4.394-0.751-9.216-5.145-10.769c-4.393-1.553-9.216,0.751-10.769,5.145
			c-12.091,34.212-43.059,58.049-78.696,61.466c4.477-47.047,44.216-83.973,92.416-83.973c4.662,0,8.44-3.779,8.44-8.44
			s-3.778-8.44-8.44-8.44c-48.376,0-89.535,31.474-104.088,75.018v-21.226c29.172-31.108,37.744-76.243,21.74-116.018
			c-1.74-4.326-6.656-6.417-10.98-4.68c-4.324,1.74-6.419,6.656-4.679,10.979c12.807,31.831,7.022,67.719-14.521,93.787
			c-30.107-36.433-28.116-90.643,5.969-124.728c3.296-3.296,3.296-8.64,0-11.935c-3.297-3.296-8.64-3.295-11.936,0
			c-41.928,41.927-42.732,109.608-2.472,152.56v21.262c-14.553-43.544-55.712-75.018-104.088-75.018c-4.661,0-8.44,3.779-8.44,8.44
			c0,27.476,10.153,52.624,26.903,71.892c-6.004-1.022-12.172-1.562-18.464-1.562c-4.661,0-8.44,3.779-8.44,8.44
			c0,27.476,10.153,52.624,26.903,71.892c-6.004-1.022-12.172-1.562-18.464-1.562c-4.661,0-8.44,3.779-8.44,8.44
			c0,27.476,10.153,52.624,26.903,71.892c-6.004-1.022-12.172-1.562-18.464-1.562c-4.661,0-8.44,3.779-8.44,8.44
			c0,60.497,49.217,109.714,109.715,109.714c0.988,0,1.932-0.179,2.813-0.491v48.315c0,4.661,3.779,8.44,8.44,8.44
			c4.662,0,8.44-3.779,8.44-8.44v-48.315c0.881,0.312,1.825,0.491,2.813,0.491c46.426,0,88.007-29.394,103.469-73.144
			c1.553-4.394-0.751-9.216-5.145-10.769c-4.393-1.555-9.216,0.751-10.769,5.145c-12.091,34.212-43.059,58.049-78.696,61.466
			c4.477-47.047,44.216-83.973,92.416-83.973c4.662,0,8.44-3.779,8.44-8.44s-3.778-8.44-8.44-8.44
			c-6.275,0-12.425,0.537-18.414,1.554c8.86-10.186,15.934-22.088,20.608-35.313c1.553-4.394-0.751-9.216-5.145-10.769
			c-4.393-1.553-9.216,0.751-10.769,5.145c-12.091,34.212-43.059,58.049-78.696,61.466c4.477-47.047,44.216-83.973,92.416-83.973
			c4.662,0,8.44-3.779,8.44-8.44s-3.778-8.44-8.44-8.44c-6.275,0-12.425,0.537-18.414,1.554
			c8.86-10.186,15.934-22.088,20.608-35.313c1.553-4.394-0.751-9.216-5.145-10.769c-4.393-1.554-9.216,0.751-10.769,5.145
			c-12.091,34.212-43.059,58.049-78.696,61.466C280.59,233.849,320.328,196.923,368.528,196.923z M152.331,118.573
			c44.136,4.196,79.361,39.422,83.557,83.557C191.753,197.934,156.527,162.709,152.331,118.573z M152.331,197.343
			c44.136,4.196,79.361,39.422,83.557,83.557C191.753,276.704,156.527,241.478,152.331,197.343z M152.331,276.112
			c44.136,4.196,79.361,39.422,83.557,83.557C191.753,355.473,156.527,320.248,152.331,276.112z M152.331,354.881
			c44.136,4.196,79.361,39.422,83.557,83.557C191.753,434.243,156.527,399.017,152.331,354.881z M247.561,412.601
			c-4.619-13.822-11.917-26.427-21.277-37.195c6.004,1.022,12.172,1.562,18.464,1.562c0.988,0,1.932-0.179,2.813-0.491V412.601z
			 M247.561,333.831c-4.619-13.821-11.916-26.426-21.277-37.195c6.004,1.022,12.172,1.562,18.464,1.562
			c0.988,0,1.932-0.179,2.813-0.491V333.831z M247.561,255.061c-4.619-13.821-11.916-26.426-21.277-37.195
			c6.004,1.022,12.172,1.562,18.464,1.562c0.988,0,1.932-0.178,2.813-0.491V255.061z M285.741,375.378
			c-9.372,10.775-16.678,23.389-21.3,37.222v-36.124c0.881,0.312,1.825,0.491,2.813,0.491
			C273.524,376.967,279.7,376.414,285.741,375.378z M285.741,296.609c-9.372,10.775-16.678,23.389-21.3,37.222v-36.124
			c0.881,0.312,1.825,0.491,2.813,0.491C273.524,298.198,279.7,297.644,285.741,296.609z M264.44,255.061v-36.124
			c0.881,0.312,1.825,0.491,2.813,0.491c6.27,0,12.447-0.554,18.487-1.589C276.368,228.614,269.063,241.23,264.44,255.061z"/>
	</g>
</g>
<g>
</g>
<g>
</g>
<g>
</g>
<g>
</g>
<g>
</g>
<g>
</g>
<g>
</g>
<g>
</g>
<g>
</g>
<g>
</g>
<g>
</g>
<g>
</g>
<g>
</g>
<g>
</g>
<g>
</g>
</svg>
