<?xml version="1.0" encoding="iso-8859-1"?>
<!-- Generator: Adobe Illustrator 18.0.0, SVG Export Plug-In . SVG Version: 6.00 Build 0)  -->
<!DOCTYPE svg PUBLIC "-//W3C//DTD SVG 1.1//EN" "http://www.w3.org/Graphics/SVG/1.1/DTD/svg11.dtd">
<svg version="1.1" id="Capa_1" xmlns="http://www.w3.org/2000/svg" xmlns:xlink="http://www.w3.org/1999/xlink" x="0px" y="0px"
	 viewBox="0 0 185.112 185.112" style="enable-background:new 0 0 185.112 185.112;" xml:space="preserve">
<g>
	<path d="M23.421,2.516c-1.423,1.601-2.095,3.733-1.844,5.86L37.815,146.48v0.009l3.763,32c0.443,3.777,3.644,6.624,7.448,6.624
		h87.061c3.804,0,7.005-2.847,7.448-6.624l3.763-32v-0.009L163.535,8.376c0.251-2.127-0.421-4.26-1.844-5.86
		C160.268,0.916,158.228,0,156.087,0H29.026C26.884,0,24.844,0.916,23.421,2.516z M129.417,170.112H55.696l-1.986-16.896h77.693
		L129.417,170.112z M147.653,15l-14.486,123.216H51.946L37.459,15H147.653z"/>
</g>
<g>
</g>
<g>
</g>
<g>
</g>
<g>
</g>
<g>
</g>
<g>
</g>
<g>
</g>
<g>
</g>
<g>
</g>
<g>
</g>
<g>
</g>
<g>
</g>
<g>
</g>
<g>
</g>
<g>
</g>
</svg>
