<?xml version="1.0" standalone="no"?>
<!DOCTYPE svg PUBLIC "-//W3C//DTD SVG 20010904//EN"
 "http://www.w3.org/TR/2001/REC-SVG-20010904/DTD/svg10.dtd">
<svg version="1.0" xmlns="http://www.w3.org/2000/svg"
 width="512.000000pt" height="512.000000pt" viewBox="0 0 512.000000 512.000000"
 preserveAspectRatio="xMidYMid meet">

<g transform="translate(0.000000,512.000000) scale(0.100000,-0.100000)"
fill="#000000" stroke="none">
<path d="M2915 4376 l-2080 -742 -59 27 c-33 16 -85 34 -115 40 -82 17 -233 6
-304 -21 -248 -94 -394 -355 -346 -614 31 -169 302 -701 531 -1044 410 -613
977 -1165 1603 -1559 324 -204 774 -425 922 -452 280 -52 557 124 628 399 21
79 16 240 -9 310 l-16 45 725 2119 c399 1166 725 2127 725 2137 0 51 -50 100
-102 98 -13 0 -959 -334 -2103 -743z m1935 465 c0 -8 -222 -665 -241 -713
l-11 -26 -41 18 c-127 56 -295 42 -417 -35 -204 -129 -271 -407 -147 -617 53
-90 166 -176 267 -203 29 -8 44 -17 42 -26 -8 -43 -188 -559 -194 -559 -5 0
-62 42 -129 92 -104 80 -126 93 -159 93 -69 0 -116 -71 -90 -135 10 -24 118
-113 298 -246 13 -10 -21 -117 -243 -767 l-258 -755 -47 32 c-25 18 -87 50
-136 71 -49 22 -168 79 -264 127 -782 389 -1441 1033 -1845 1801 -58 111 -223
457 -228 480 -2 8 224 95 249 96 6 1 14 -18 18 -40 16 -99 102 -222 201 -284
94 -60 211 -84 316 -65 297 53 464 373 335 642 -13 27 -20 51 -16 53 4 3 108
40 231 84 123 43 396 140 606 215 210 75 386 136 391 136 5 0 20 -27 32 -60
35 -93 92 -130 153 -99 61 31 71 86 32 174 -22 51 -23 56 -7 63 50 19 1288
461 1295 461 4 1 7 -3 7 -8z m-357 -913 c20 -10 37 -22 37 -26 0 -4 -34 -107
-76 -229 -87 -253 -80 -246 -179 -199 -117 55 -171 181 -133 308 13 45 77 122
119 143 71 37 162 39 232 3z m-2557 -173 c59 -101 38 -232 -51 -314 -42 -38
-120 -71 -170 -71 -95 0 -207 82 -238 175 -34 99 -44 90 196 177 116 42 217
77 224 77 7 1 24 -19 39 -44z m-1275 -260 c60 -21 131 -75 167 -127 16 -24 51
-92 77 -153 435 -1007 1278 -1856 2280 -2297 165 -72 214 -103 261 -166 48
-66 67 -138 62 -231 -8 -127 -78 -230 -196 -288 -49 -24 -69 -28 -142 -28
-103 1 -144 16 -455 170 -517 255 -966 576 -1370 981 -402 401 -719 848 -975
1369 -155 316 -165 342 -165 445 0 73 4 93 28 142 45 91 125 160 217 189 44
13 165 10 211 -6z"/>
<path d="M2935 3823 c-199 -71 -315 -230 -315 -433 0 -255 196 -453 450 -453
254 0 450 198 450 454 0 181 -94 329 -260 408 -68 32 -84 36 -175 39 -76 2
-112 -2 -150 -15z m229 -197 c49 -20 116 -85 137 -131 25 -53 25 -157 0 -210
-88 -195 -374 -195 -462 0 -23 50 -25 152 -4 203 21 49 80 110 130 133 49 23
151 25 199 5z"/>
<path d="M2066 3029 c-37 -29 -49 -64 -36 -104 19 -59 35 -66 222 -91 95 -13
181 -24 192 -24 28 0 86 63 86 94 0 37 -24 79 -52 94 -22 11 -301 52 -358 52
-15 0 -39 -10 -54 -21z"/>
<path d="M2931 2584 c-200 -54 -341 -235 -341 -439 0 -293 283 -513 565 -440
226 59 375 283 337 509 -45 267 -306 439 -561 370z m224 -212 c91 -47 139
-126 139 -227 0 -101 -47 -179 -139 -228 -54 -29 -163 -30 -220 -2 -158 78
-193 285 -69 409 24 25 63 51 86 60 56 21 151 15 203 -12z"/>
<path d="M2119 2552 c-57 -29 -63 -54 -44 -193 9 -67 21 -132 28 -146 13 -28
55 -53 91 -53 28 0 82 41 91 70 7 22 -22 256 -35 279 -26 50 -81 68 -131 43z"/>
<path d="M528 3265 c-62 -35 -63 -83 -2 -224 67 -155 215 -439 246 -472 20
-23 35 -29 68 -29 52 0 100 42 100 88 0 18 -41 110 -104 233 -57 112 -121 243
-141 291 -20 47 -45 94 -55 103 -25 23 -80 28 -112 10z"/>
<path d="M927 2452 c-20 -21 -27 -38 -27 -68 0 -50 20 -79 64 -94 71 -23 143
40 129 112 -15 76 -113 105 -166 50z"/>
</g>
</svg>
